<?xml version="1.0" encoding="UTF-8"?>
<!--
  Project: Sammon mapping revisited (alpha-Sammon, scalable solver, temporal extension)
  Author: Martin Radvansky, VSB - Technical University of Ostrava
  Contact: martinradvansky@gmail.com
  Created: 2026-09-09
  License: for research use within the project; see projectstate.md

  Figure: method_overview (graphical abstract / conceptual scheme of the method,
          item (j) in reserse/2026-09-09_specifikace_metody.md, section 14).
  Content: 4 blocks read left to right: Input -> alpha-Sammon stress -> Solvers -> Output.
  Units:   1 user unit = 1 mm (viewBox 0 0 190 95, page 190 mm x 95 mm, aspect 2:1).
  Fonts:   DejaVu Sans (covers Greek letters and math symbols). Body text 2.5 mm = 7.1 pt,
           equations 2.6-2.7 mm, headers 3.2 mm = 9.1 pt, sub/superscripts 2.1 mm (6 pt).
  Colours: Okabe-Ito colour-blind safe palette
           blue #0072B2, vermillion #D55E00, bluish green #009E73, reddish purple #CC79A7,
           orange #E69F00, sky blue #56B4E9; text #222222 / #555555.
  Layers:  each top-level <g> is an Inkscape layer (inkscape:groupmode="layer").
  Build:   make_method_overview.bat (svglib + reportlab via clanek/img/src/svg2pdf.py).
  Note:    all coordinates are hand-placed schematic icons, no experimental data.
  Provenance of every symbol / name: method_overview_provenance.md.
  Updated: 2026-09-18, reviewer fixes vs. clanek/sections/03_metoda.tex --
           (1) added alpha_pred = g(rho_NN) as an alternative, no-run route
               next to grid-search (subsec:alpha_pred / subsec:alpha_selection);
           (2) removed "multi-scale mixture" (negative result, supplement S3,
               not part of the main-text method);
           (3) weight formula unified with eq:weights: w_ij = (D_ij + eps_D)^-alpha.
  Updated: 2026-09-18, fixed missing "<" glyph bug in st_eq_note: svglib/
           reportlab silently dropped the "<" character from the embedded
           PDF font (reproducible bug in the svg2pdf.py pipeline; reordering
           and separate-tspan workarounds did not help). Reworded "sums over
           pairs i < j" to "sums over unordered pairs {i, j}" (same meaning,
           no reliance on the "<" glyph); see comment at st_eq_note.
-->
<svg xmlns="http://www.w3.org/2000/svg"
     xmlns:inkscape="http://www.inkscape.org/namespaces/inkscape"
     width="190mm" height="95mm" viewBox="0 0 190 95"
     font-family="DejaVu Sans" font-size="2.5" fill="#222222">

  <!-- ======================= background ======================= -->
  <g id="layer_background" inkscape:label="00 background" inkscape:groupmode="layer">
    <rect id="page" x="0" y="0" width="190" height="95" fill="#FFFFFF"/>
  </g>

  <!-- ======================= block frames ======================= -->
  <!-- Each block: rounded header bar (solid colour) + tinted body. Top y = 3, header bottom y = 10, body bottom y = 92. -->
  <g id="layer_frames" inkscape:label="01 block frames" inkscape:groupmode="layer">
    <!-- block 1: Input (x 2.5 .. 38.5) -->
    <path id="frame1_body" d="M 2.5,10 H 38.5 V 90.5 A 1.5,1.5 0 0 1 37,92 H 4 A 1.5,1.5 0 0 1 2.5,90.5 Z" fill="#E5EFF7"/>
    <path id="frame1_head" d="M 4,3 H 37 A 1.5,1.5 0 0 1 38.5,4.5 V 10 H 2.5 V 4.5 A 1.5,1.5 0 0 1 4,3 Z" fill="#0072B2"/>
    <!-- block 2: alpha-Sammon stress (x 42.5 .. 90.5) -->
    <path id="frame2_body" d="M 42.5,10 H 90.5 V 90.5 A 1.5,1.5 0 0 1 89,92 H 44 A 1.5,1.5 0 0 1 42.5,90.5 Z" fill="#FBEBE0"/>
    <path id="frame2_head" d="M 44,3 H 89 A 1.5,1.5 0 0 1 90.5,4.5 V 10 H 42.5 V 4.5 A 1.5,1.5 0 0 1 44,3 Z" fill="#D55E00"/>
    <!-- block 3: Solvers (x 94.5 .. 140.5) -->
    <path id="frame3_body" d="M 94.5,10 H 140.5 V 90.5 A 1.5,1.5 0 0 1 139,92 H 96 A 1.5,1.5 0 0 1 94.5,90.5 Z" fill="#E0F4EE"/>
    <path id="frame3_head" d="M 96,3 H 139 A 1.5,1.5 0 0 1 140.5,4.5 V 10 H 94.5 V 4.5 A 1.5,1.5 0 0 1 96,3 Z" fill="#009E73"/>
    <!-- block 4: Output (x 144.5 .. 187.5) -->
    <path id="frame4_body" d="M 144.5,10 H 187.5 V 90.5 A 1.5,1.5 0 0 1 186,92 H 146 A 1.5,1.5 0 0 1 144.5,90.5 Z" fill="#F9EDF4"/>
    <path id="frame4_head" d="M 146,3 H 186 A 1.5,1.5 0 0 1 187.5,4.5 V 10 H 144.5 V 4.5 A 1.5,1.5 0 0 1 146,3 Z" fill="#CC79A7"/>
  </g>

  <!-- ======================= block headers ======================= -->
  <g id="layer_headers" inkscape:label="02 block headers" inkscape:groupmode="layer"
     font-size="3.2" font-weight="bold" fill="#FFFFFF">
    <text id="head1" x="5" y="7.9">1  Input</text>
    <text id="head2" x="45" y="7.9">2  α-Sammon stress</text>
    <text id="head3" x="97" y="7.9">3  Solvers</text>
    <text id="head4" x="147" y="7.9">4  Output</text>
  </g>

  <!-- ======================= flow arrows between blocks ======================= -->
  <g id="layer_arrows" inkscape:label="03 flow arrows" inkscape:groupmode="layer" fill="#555555">
    <polygon id="arrow12" points="39.2,45.0 42.0,47.5 39.2,50.0"/>
    <polygon id="arrow23" points="91.2,45.0 94.0,47.5 91.2,50.0"/>
    <polygon id="arrow34" points="141.2,45.0 144.0,47.5 141.2,50.0"/>
  </g>

  <!-- ======================= block 1: Input ======================= -->
  <g id="layer_input" inkscape:label="10 block 1 Input" inkscape:groupmode="layer">
    <text id="in_subtitle" x="20.5" y="14.8" text-anchor="middle" fill="#555555">distance matrix D</text>

    <!-- row A: vector data -> Euclidean distance matrix (icon: symmetric matrix, zero diagonal, shade = |i-j| band) -->
    <g id="in_matrix_icon">
      <rect x="5.0" y="18.5" width="1.8" height="1.8" fill="#FFFFFF" stroke="#FFFFFF" stroke-width="0.15"/>
      <rect x="6.8" y="18.5" width="1.8" height="1.8" fill="#B3D1E8" stroke="#FFFFFF" stroke-width="0.15"/>
      <rect x="8.6" y="18.5" width="1.8" height="1.8" fill="#7FB3DA" stroke="#FFFFFF" stroke-width="0.15"/>
      <rect x="10.4" y="18.5" width="1.8" height="1.8" fill="#4A94CC" stroke="#FFFFFF" stroke-width="0.15"/>
      <rect x="12.2" y="18.5" width="1.8" height="1.8" fill="#0072B2" stroke="#FFFFFF" stroke-width="0.15"/>
      <rect x="5.0" y="20.3" width="1.8" height="1.8" fill="#B3D1E8" stroke="#FFFFFF" stroke-width="0.15"/>
      <rect x="6.8" y="20.3" width="1.8" height="1.8" fill="#FFFFFF" stroke="#FFFFFF" stroke-width="0.15"/>
      <rect x="8.6" y="20.3" width="1.8" height="1.8" fill="#B3D1E8" stroke="#FFFFFF" stroke-width="0.15"/>
      <rect x="10.4" y="20.3" width="1.8" height="1.8" fill="#7FB3DA" stroke="#FFFFFF" stroke-width="0.15"/>
      <rect x="12.2" y="20.3" width="1.8" height="1.8" fill="#4A94CC" stroke="#FFFFFF" stroke-width="0.15"/>
      <rect x="5.0" y="22.1" width="1.8" height="1.8" fill="#7FB3DA" stroke="#FFFFFF" stroke-width="0.15"/>
      <rect x="6.8" y="22.1" width="1.8" height="1.8" fill="#B3D1E8" stroke="#FFFFFF" stroke-width="0.15"/>
      <rect x="8.6" y="22.1" width="1.8" height="1.8" fill="#FFFFFF" stroke="#FFFFFF" stroke-width="0.15"/>
      <rect x="10.4" y="22.1" width="1.8" height="1.8" fill="#B3D1E8" stroke="#FFFFFF" stroke-width="0.15"/>
      <rect x="12.2" y="22.1" width="1.8" height="1.8" fill="#7FB3DA" stroke="#FFFFFF" stroke-width="0.15"/>
      <rect x="5.0" y="23.9" width="1.8" height="1.8" fill="#4A94CC" stroke="#FFFFFF" stroke-width="0.15"/>
      <rect x="6.8" y="23.9" width="1.8" height="1.8" fill="#7FB3DA" stroke="#FFFFFF" stroke-width="0.15"/>
      <rect x="8.6" y="23.9" width="1.8" height="1.8" fill="#B3D1E8" stroke="#FFFFFF" stroke-width="0.15"/>
      <rect x="10.4" y="23.9" width="1.8" height="1.8" fill="#FFFFFF" stroke="#FFFFFF" stroke-width="0.15"/>
      <rect x="12.2" y="23.9" width="1.8" height="1.8" fill="#B3D1E8" stroke="#FFFFFF" stroke-width="0.15"/>
      <rect x="5.0" y="25.7" width="1.8" height="1.8" fill="#0072B2" stroke="#FFFFFF" stroke-width="0.15"/>
      <rect x="6.8" y="25.7" width="1.8" height="1.8" fill="#4A94CC" stroke="#FFFFFF" stroke-width="0.15"/>
      <rect x="8.6" y="25.7" width="1.8" height="1.8" fill="#7FB3DA" stroke="#FFFFFF" stroke-width="0.15"/>
      <rect x="10.4" y="25.7" width="1.8" height="1.8" fill="#B3D1E8" stroke="#FFFFFF" stroke-width="0.15"/>
      <rect x="12.2" y="25.7" width="1.8" height="1.8" fill="#FFFFFF" stroke="#FFFFFF" stroke-width="0.15"/>
      <rect x="5.0" y="18.5" width="9" height="9" fill="none" stroke="#0072B2" stroke-width="0.3"/>
    </g>
    <g id="in_row_vectors">
      <text x="16.5" y="21.0" font-weight="bold">Vectors</text>
      <text x="16.5" y="24.4">Euclidean</text>
      <text x="16.5" y="27.8">distance</text>
    </g>

    <!-- row B: graphs -> shortest-path / resistance distance (icon: small undirected graph) -->
    <g id="in_graph_icon" stroke="#555555" stroke-width="0.3">
      <line x1="6.0" y1="33.0" x2="12.5" y2="32.8"/>
      <line x1="6.0" y1="33.0" x2="9.3" y2="36.2"/>
      <line x1="12.5" y1="32.8" x2="9.3" y2="36.2"/>
      <line x1="9.3" y1="36.2" x2="5.8" y2="39.6"/>
      <line x1="9.3" y1="36.2" x2="13.0" y2="39.6"/>
      <line x1="5.8" y1="39.6" x2="9.5" y2="40.8"/>
      <line x1="13.0" y1="39.6" x2="9.5" y2="40.8"/>
      <line x1="6.0" y1="33.0" x2="5.8" y2="39.6"/>
      <g fill="#0072B2" stroke="none">
        <circle cx="6.0" cy="33.0" r="0.9"/>
        <circle cx="12.5" cy="32.8" r="0.9"/>
        <circle cx="9.3" cy="36.2" r="0.9"/>
        <circle cx="5.8" cy="39.6" r="0.9"/>
        <circle cx="13.0" cy="39.6" r="0.9"/>
        <circle cx="9.5" cy="40.8" r="0.9"/>
      </g>
    </g>
    <g id="in_row_graphs">
      <text x="16.5" y="34.2" font-weight="bold">Graphs</text>
      <text x="16.5" y="37.6">shortest-path /</text>
      <text x="16.5" y="41.0">resistance dist.</text>
    </g>

    <!-- row C: sequence of frames D_1 .. D_T (icon: three small matrices on a time arrow) -->
    <g id="in_sequence_icon">
      <rect x="5.2" y="47.6" width="2.4" height="2.4" fill="#B3D1E8" stroke="#0072B2" stroke-width="0.25"/>
      <rect x="8.6" y="47.6" width="2.4" height="2.4" fill="#7FB3DA" stroke="#0072B2" stroke-width="0.25"/>
      <rect x="12.0" y="47.6" width="2.4" height="2.4" fill="#0072B2" stroke="#0072B2" stroke-width="0.25"/>
      <line x1="5.0" y1="52.6" x2="14.0" y2="52.6" stroke="#555555" stroke-width="0.3"/>
      <polygon points="13.6,51.7 15.2,52.6 13.6,53.5" fill="#555555"/>
      <text x="9.7" y="56.4" text-anchor="middle" fill="#555555">t</text>
    </g>
    <g id="in_row_sequences">
      <text x="16.5" y="47.8" font-weight="bold">Sequences</text>
      <text x="16.5" y="51.2">frames</text>
      <text x="16.5" y="54.6">D<tspan font-size="2.1" dy="0.8">1</tspan><tspan dy="-0.8">, …, D</tspan><tspan font-size="2.1" dy="0.8">T</tspan></text>
    </g>

    <!-- notation legend shared by blocks 2 and 4 -->
    <line id="in_separator" x1="5" y1="61" x2="36" y2="61" stroke="#0072B2" stroke-width="0.3"/>
    <g id="in_notation">
      <text x="5" y="65.6" font-weight="bold">Notation</text>
      <text x="5" y="70.0">D<tspan font-size="2.1" dy="0.8">ij</tspan><tspan dy="-0.8">  input distance</tspan></text>
      <text x="5" y="74.4">d<tspan font-size="2.1" dy="0.8">ij</tspan><tspan dy="-0.8">  embedded distance</tspan></text>
      <text x="5" y="78.8">w<tspan font-size="2.1" dy="0.8">ij</tspan><tspan dy="-0.8">  pair weight</tspan></text>
      <text x="5" y="83.2">Y  layout, n × p</text>
      <text x="5" y="87.6">p ∈ {2, 3}</text>
    </g>
  </g>

  <!-- ======================= block 2: alpha-Sammon stress ======================= -->
  <g id="layer_stress" inkscape:label="20 block 2 alpha-Sammon stress" inkscape:groupmode="layer">
    <!-- normalized stress E_alpha(Y) = sum w_ij (D_ij - d_ij)^2 / sum w_ij D_ij^2 (spec section 1.1) -->
    <g id="st_equation" font-size="2.7">
      <text id="st_eq_lhs" x="45.5" y="19.7">E<tspan font-size="2.1" dy="0.8">α</tspan><tspan dy="-0.8">(Y) =</tspan></text>
      <text id="st_eq_num" x="60.5" y="17.4">Σ w<tspan font-size="2.1" dy="0.8">ij</tspan><tspan dy="-0.8"> (D</tspan><tspan font-size="2.1" dy="0.8">ij</tspan><tspan dy="-0.8"> − d</tspan><tspan font-size="2.1" dy="0.8">ij</tspan><tspan dy="-0.8">)²</tspan></text>
      <line id="st_eq_bar" x1="59.5" y1="18.8" x2="87.5" y2="18.8" stroke="#222222" stroke-width="0.3"/>
      <text id="st_eq_den" x="66.0" y="22.6">Σ w<tspan font-size="2.1" dy="0.8">ij</tspan><tspan dy="-0.8"> D</tspan><tspan font-size="2.1" dy="0.8">ij</tspan><tspan dy="-0.8">²</tspan></text>
    </g>
    <!-- NOTE: wording avoids a literal "<" character on purpose. The reportlab/
         svglib TTFont subsetting pipeline used by svg2pdf.py has a reproducible
         bug (verified empirically, 2026-09-18: isolated single-character reorder
         and own-tspan workarounds were tried and still silently dropped the "<"
         glyph from the embedded PDF font in this multi-block document) that
         drops the "<" glyph from the rendered PDF. Rewording to "unordered
         pairs {i, j}" keeps the same mathematical meaning (each pair counted
         once, i != j) without relying on that glyph. -->
    <text id="st_eq_note" x="45.5" y="27.0" fill="#555555">sums over unordered pairs {i, j}</text>
    <!-- weight family w_ij = (D_ij + eps_D)^(-alpha), matches eq:weights in 03_metoda.tex -->
    <text id="st_weight" x="45.5" y="32.6" font-size="2.7">w<tspan font-size="2.1" dy="0.8">ij</tspan><tspan dy="-0.8"> = (D</tspan><tspan font-size="2.1" dy="0.8">ij</tspan><tspan dy="-0.8"> + ε</tspan><tspan font-size="2.1" dy="0.8">D</tspan><tspan dy="-0.8">)</tspan><tspan font-size="2.1" dy="-2.0">−α</tspan><tspan dy="2.0">  (α ≥ 0)</tspan></text>

    <!-- alpha axis with the three classical special cases (spec section 1.1) -->
    <g id="st_alpha_axis">
      <text x="45.5" y="38.6" font-weight="bold">weight family</text>
      <line x1="47.5" y1="46.5" x2="85.5" y2="46.5" stroke="#555555" stroke-width="0.3"/>
      <polygon points="85.0,45.4 87.2,46.5 85.0,47.6" fill="#555555"/>
      <text x="88.0" y="47.4" font-style="italic">α</text>
      <!-- tick alpha = 0: metric MDS (Kruskal stress-1, squared) -->
      <circle cx="51.0" cy="46.5" r="1.0" fill="#FFFFFF" stroke="#D55E00" stroke-width="0.3"/>
      <text x="51.0" y="42.9" text-anchor="middle">α = 0</text>
      <text x="51.0" y="51.4" text-anchor="middle">metric MDS</text>
      <!-- tick alpha = 1: Sammon (1969), the classical method -->
      <circle cx="65.0" cy="46.5" r="1.0" fill="#D55E00" stroke="#D55E00" stroke-width="0.3"/>
      <text x="65.0" y="42.9" text-anchor="middle">α = 1</text>
      <text x="65.0" y="55.2" text-anchor="middle" font-weight="bold" fill="#D55E00">Sammon (1969)</text>
      <!-- tick alpha = 2: Kamada-Kawai weights -->
      <circle cx="78.5" cy="46.5" r="1.0" fill="#FFFFFF" stroke="#D55E00" stroke-width="0.3"/>
      <text x="78.5" y="42.9" text-anchor="middle">α = 2</text>
      <text x="78.5" y="51.4" text-anchor="middle">Kamada–Kawai</text>
      <!-- qualitative reading of the axis: larger alpha = larger weight on small distances -->
      <text x="45.5" y="59.6" fill="#555555" font-style="italic">global emphasis</text>
      <text x="88.0" y="59.6" fill="#555555" font-style="italic" text-anchor="end">local emphasis</text>
    </g>

    <!-- alpha selection: two alternative, mutually exclusive routes (03_metoda.tex, subsec:alpha_selection) -->
    <!-- route A: grid-search over alpha using the co-ranking AUC criterion (eq:auc_rnx) -->
    <g id="st_note_gridsearch">
      <rect x="45.5" y="63.0" width="42" height="12.0" rx="1.2" fill="#FFFFFF" stroke="#D55E00" stroke-width="0.3"/>
      <text x="47.5" y="66.8" font-weight="bold">Grid-search</text>
      <text x="47.5" y="70.2">chosen by R<tspan font-size="2.1" dy="0.8">NX</tspan><tspan dy="-0.8"> AUC</tspan></text>
      <text x="47.5" y="73.6">(co-ranking criterion)</text>
    </g>
    <!-- "or": the two routes are alternatives, not steps of one pipeline -->
    <g id="st_note_or" font-style="italic" fill="#555555">
      <text x="66.5" y="76.6" text-anchor="middle" font-size="2.0">or</text>
    </g>
    <!-- route B: no-tuning rule alpha_pred = g(rho_NN), the paper's main practical contribution
         (03_metoda.tex, subsec:alpha_pred, eq:alpha_pred); needs only D, zero DR runs -->
    <g id="st_note_alpha_pred">
      <rect x="45.5" y="77.0" width="42" height="12.0" rx="1.2" fill="#FFFFFF" stroke="#D55E00" stroke-width="0.3"/>
      <text x="47.5" y="80.8" font-weight="bold">α<tspan font-size="2.1" dy="0.8">pred</tspan><tspan dy="-0.8"> = g(ρ</tspan><tspan font-size="2.1" dy="0.8">NN</tspan><tspan dy="-0.8">)</tspan></text>
      <text x="47.5" y="84.3">no run needed</text>
      <text x="47.5" y="87.9" fill="#555555">piecewise-constant rule</text>
    </g>
  </g>

  <!-- ======================= block 3: Solvers ======================= -->
  <g id="layer_solvers" inkscape:label="30 block 3 Solvers" inkscape:groupmode="layer">
    <text id="so_subtitle" x="108.5" y="14.8" fill="#555555">minimize E<tspan font-size="2.1" dy="0.8">α</tspan><tspan dy="-0.8">(Y)</tspan></text>

    <!-- solver A: SMACOF majorization (spec section 2) -->
    <g id="so_smacof">
      <rect x="96.5" y="18.0" width="42" height="15.5" rx="1.2" fill="#FFFFFF" stroke="#009E73" stroke-width="0.3"/>
      <text x="98.5" y="22.4" font-size="2.6" font-weight="bold">SMACOF majorization</text>
      <text x="98.5" y="26.2">Y ← V<tspan font-size="2.1" dy="-1.0">+</tspan><tspan dy="1.0"> B(Y) Y  (Guttman step)</tspan></text>
      <text x="98.5" y="30.0">monotone stress decrease</text>
    </g>
    <!-- solver B: stabilized SGD (spec section 3.3) -->
    <g id="so_sgd">
      <rect x="96.5" y="36.0" width="42" height="15.5" rx="1.2" fill="#FFFFFF" stroke="#009E73" stroke-width="0.3"/>
      <text x="98.5" y="40.4" font-size="2.6" font-weight="bold">Stabilized SGD</text>
      <text x="98.5" y="44.2">ε-regularized weights,</text>
      <text x="98.5" y="48.0">step clipping μ<tspan font-size="2.1" dy="0.8">ij</tspan><tspan dy="-0.8"> ≤ μ</tspan><tspan font-size="2.1" dy="0.8">max</tspan></text>
    </g>
    <!-- solver C: sparse stress model (spec section 4) -->
    <g id="so_sparse">
      <rect x="96.5" y="54.0" width="42" height="15.5" rx="1.2" fill="#FFFFFF" stroke="#009E73" stroke-width="0.3"/>
      <text x="98.5" y="58.4" font-size="2.6" font-weight="bold">Sparse stress</text>
      <text x="98.5" y="62.2">k-NN pairs + p pivots</text>
      <text x="98.5" y="66.0">O(n(k+p)) vs. O(n²) terms</text>
    </g>

    <!-- backends (spec section 12) -->
    <g id="so_backends">
      <text x="117.5" y="74.4" text-anchor="middle" fill="#555555">same kernels, two backends</text>
      <rect x="96.5" y="77.0" width="20" height="11.5" rx="1.2" fill="#009E73"/>
      <text x="106.5" y="81.4" text-anchor="middle" font-weight="bold" fill="#FFFFFF">CPU</text>
      <text x="106.5" y="85.4" text-anchor="middle" fill="#FFFFFF">numba</text>
      <rect x="118.5" y="77.0" width="20" height="11.5" rx="1.2" fill="#009E73"/>
      <text x="128.5" y="81.4" text-anchor="middle" font-weight="bold" fill="#FFFFFF">GPU</text>
      <text x="128.5" y="85.4" text-anchor="middle" fill="#FFFFFF">PyTorch CUDA</text>
    </g>
  </g>

  <!-- ======================= block 4: Output ======================= -->
  <g id="layer_output" inkscape:label="40 block 4 Output" inkscape:groupmode="layer">
    <!-- 2D embedding: schematic clusters (hand-placed icon, NOT data) -->
    <text id="ou_title_embedding" x="166.0" y="14.8" text-anchor="middle" font-weight="bold">2D embedding Y</text>
    <g id="ou_embedding_icon">
      <rect x="148.0" y="17.0" width="36" height="26" rx="1.2" fill="#FFFFFF" stroke="#CC79A7" stroke-width="0.3"/>
      <g id="ou_cluster_orange" fill="#E69F00">
        <circle cx="154.2" cy="22.8" r="0.9"/>
        <circle cx="156.9" cy="22.1" r="0.9"/>
        <circle cx="158.4" cy="24.6" r="0.9"/>
        <circle cx="155.3" cy="25.9" r="0.9"/>
        <circle cx="157.6" cy="27.0" r="0.9"/>
        <circle cx="153.1" cy="25.1" r="0.9"/>
        <circle cx="156.0" cy="24.2" r="0.9"/>
      </g>
      <g id="ou_cluster_sky" fill="#56B4E9">
        <circle cx="173.0" cy="21.2" r="0.9"/>
        <circle cx="175.8" cy="20.6" r="0.9"/>
        <circle cx="177.9" cy="22.9" r="0.9"/>
        <circle cx="174.4" cy="24.1" r="0.9"/>
        <circle cx="176.9" cy="25.3" r="0.9"/>
        <circle cx="172.3" cy="23.8" r="0.9"/>
        <circle cx="179.2" cy="25.0" r="0.9"/>
      </g>
      <g id="ou_cluster_green" fill="#009E73">
        <circle cx="162.6" cy="34.4" r="0.9"/>
        <circle cx="165.4" cy="33.7" r="0.9"/>
        <circle cx="167.9" cy="35.6" r="0.9"/>
        <circle cx="163.8" cy="37.4" r="0.9"/>
        <circle cx="166.6" cy="38.6" r="0.9"/>
        <circle cx="161.3" cy="37.0" r="0.9"/>
        <circle cx="169.1" cy="38.0" r="0.9"/>
        <circle cx="164.9" cy="36.0" r="0.9"/>
      </g>
    </g>

    <!-- temporal extension: E_t = E_alpha(Y_t) + lambda * sum_i m_i ||y_i(t) - y_i(t-1)||^2 (spec section 6.1) -->
    <text id="ou_title_temporal" x="166.0" y="49.5" text-anchor="middle" font-weight="bold">Temporal extension</text>
    <g id="ou_temporal_equation" font-size="2.6">
      <text x="147.0" y="54.6">E<tspan font-size="2.1" dy="0.8">t</tspan><tspan dy="-0.8"> = E</tspan><tspan font-size="2.1" dy="0.8">α</tspan><tspan dy="-0.8">(Y</tspan><tspan font-size="2.1" dy="0.8">t</tspan><tspan dy="-0.8">) +</tspan></text>
      <text x="147.0" y="59.4">λ Σ<tspan font-size="2.1" dy="0.8">i</tspan><tspan dy="-0.8"> m</tspan><tspan font-size="2.1" dy="0.8">i</tspan><tspan dy="-0.8"> ‖y</tspan><tspan font-size="2.1" dy="0.8">i</tspan><tspan dy="-0.8">(t) − y</tspan><tspan font-size="2.1" dy="0.8">i</tspan><tspan dy="-0.8">(t−1)‖²</tspan></text>
    </g>
    <text id="ou_temporal_note" x="147.0" y="63.6" fill="#555555">m<tspan font-size="2.1" dy="0.8">i</tspan><tspan dy="-0.8"> = 1 if node i persists</tspan></text>

    <!-- trajectory icon: three nodes anchored across consecutive frames (hand-placed, NOT data) -->
    <g id="ou_trajectory_icon">
      <g id="ou_frames" fill="#FFFFFF" stroke="#CC79A7" stroke-width="0.3">
        <rect x="150.5" y="66.5" width="9" height="16" rx="0.8"/>
        <rect x="161.5" y="66.5" width="9" height="16" rx="0.8"/>
        <rect x="172.5" y="66.5" width="9" height="16" rx="0.8"/>
      </g>
      <g id="ou_trajectory_lines" stroke-width="0.3" fill="none" stroke-opacity="0.7">
        <polyline points="153.0,70.5 164.5,71.3 175.8,72.5" stroke="#E69F00"/>
        <polyline points="155.3,75.0 166.0,75.5 177.2,76.6" stroke="#009E73"/>
        <polyline points="157.0,79.5 168.3,78.6 179.0,77.4" stroke="#56B4E9"/>
      </g>
      <g id="ou_trajectory_nodes">
        <circle cx="153.0" cy="70.5" r="0.9" fill="#E69F00"/>
        <circle cx="164.5" cy="71.3" r="0.9" fill="#E69F00"/>
        <circle cx="175.8" cy="72.5" r="0.9" fill="#E69F00"/>
        <circle cx="155.3" cy="75.0" r="0.9" fill="#009E73"/>
        <circle cx="166.0" cy="75.5" r="0.9" fill="#009E73"/>
        <circle cx="177.2" cy="76.6" r="0.9" fill="#009E73"/>
        <circle cx="157.0" cy="79.5" r="0.9" fill="#56B4E9"/>
        <circle cx="168.3" cy="78.6" r="0.9" fill="#56B4E9"/>
        <circle cx="179.0" cy="77.4" r="0.9" fill="#56B4E9"/>
      </g>
      <line x1="150.5" y1="85.0" x2="181.0" y2="85.0" stroke="#555555" stroke-width="0.3"/>
      <polygon points="180.5,83.9 182.7,85.0 180.5,86.1" fill="#555555"/>
      <text x="184.0" y="85.9" fill="#555555">t</text>
      <text x="155.0" y="89.3" text-anchor="middle" fill="#555555">t−1</text>
      <text x="166.0" y="89.3" text-anchor="middle" fill="#555555">t</text>
      <text x="177.0" y="89.3" text-anchor="middle" fill="#555555">t+1</text>
    </g>
  </g>
</svg>
